<svg width="128" height="30" viewBox="0 0 128 30" fill="none" xmlns="http://www.w3.org/2000/svg">
<path fill-rule="evenodd" clip-rule="evenodd" d="M31.2538 4.02049C32.7682 4.02049 34.1385 4.38961 35.3649 5.11998C36.5913 5.8556 37.5618 6.89488 38.2763 8.24569C38.9908 9.5965 39.3481 11.162 39.3481 12.9421C39.3481 14.7222 38.9908 16.2982 38.2763 17.6699C37.5618 19.0417 36.5913 20.1045 35.3649 20.8585C34.1385 21.6124 32.7682 21.9894 31.2538 21.9894C29.9528 21.9894 28.8064 21.7276 27.8146 21.204C26.8228 20.6805 26.0176 20.0208 25.3991 19.2249V30H20.92V4.30322H25.3991V6.81635C25.975 6.02314 26.7695 5.35559 27.7826 4.82155C28.7957 4.28751 29.9528 4.02049 31.2538 4.02049ZM49.074 4.02049C50.759 4.02049 52.268 4.37652 53.601 5.08857C54.9341 5.80062 55.9685 6.81111 56.7044 8.12004C57.4402 9.42896 57.8081 10.9316 57.8081 12.628C57.8081 13.2563 57.7655 13.8217 57.6802 14.3243H44.7229C44.8296 15.5809 45.2775 16.5652 46.0666 17.2773C46.8558 17.9893 47.8263 18.3453 48.978 18.3453C50.6417 18.3453 51.8254 17.6438 52.5293 16.2406H57.3602C56.8483 17.916 55.8672 19.293 54.4169 20.3716C52.9665 21.4527 51.1855 21.9894 49.074 21.9894C47.3677 21.9894 45.8374 21.6177 44.483 20.8742C43.1286 20.1307 42.0728 19.0783 41.3157 17.7171C40.5585 16.3558 40.1799 14.7851 40.1799 13.0049C40.1799 11.2065 40.5532 9.6253 41.2997 8.2614C42.0462 6.90012 43.0913 5.8556 44.435 5.11998C45.7787 4.38961 47.325 4.02049 49.074 4.02049ZM119.266 4.02049C120.951 4.02049 122.46 4.37652 123.793 5.08857C125.126 5.80062 126.16 6.81111 126.896 8.12004C127.632 9.42896 128 10.9316 128 12.628C128 13.2563 127.957 13.8217 127.872 14.3243H114.915C115.021 15.5809 115.469 16.5652 116.259 17.2773C117.048 17.9893 118.018 18.3453 119.17 18.3453C120.834 18.3453 122.017 17.6438 122.721 16.2406H127.552C127.04 17.916 126.059 19.293 124.609 20.3716C123.158 21.4527 121.377 21.9894 119.266 21.9894C117.56 21.9894 116.029 21.6177 114.675 20.8742C113.32 20.1307 112.265 19.0783 111.508 17.7171C110.75 16.3558 110.372 14.7851 110.372 13.0049C110.372 11.2065 110.745 9.6253 111.492 8.2614C112.238 6.90012 113.283 5.8556 114.627 5.11998C115.971 4.38961 117.517 4.02049 119.266 4.02049ZM4.42572 15.8058L12.6639 20.4917C12.344 20.7535 11.9708 20.9891 11.5709 21.1985C10.5577 21.7221 9.38465 21.9839 8.05161 21.9839C6.74522 21.9839 5.51882 21.6959 4.42572 21.0938V15.8058ZM86.2484 4.304V13.8853C86.2484 15.2675 86.6003 16.3304 87.3042 17.0739C88.008 17.8173 88.9678 18.1891 90.1836 18.1891C91.4206 18.1891 92.3911 17.8173 93.095 17.0739C93.7988 16.3304 94.1507 15.2675 94.1507 13.8853V4.304H98.6618V21.7074H94.1507V19.5085C93.5749 20.2624 92.823 20.854 91.8952 21.2834C90.9674 21.7127 89.9596 21.9273 88.8719 21.9273C87.4855 21.9273 86.2591 21.6394 85.1926 21.0635C84.1262 20.4875 83.2891 19.6393 82.6812 18.5189C82.0733 17.3985 81.7694 16.0634 81.7694 14.5136V4.304H86.2484ZM69.0697 4.05295V8.67083H67.886C66.4783 8.67083 65.4172 8.99545 64.7027 9.64467C63.9881 10.2939 63.6309 11.4248 63.6309 13.0374V21.7077H59.1518V4.30426H63.6309V7.00588C64.2068 6.0844 64.9586 5.36187 65.8864 4.8383C66.8142 4.31474 67.8753 4.05295 69.0697 4.05295ZM110.436 4.05295V8.67083H109.252C107.844 8.67083 106.783 8.99545 106.069 9.64467C105.354 10.2939 104.997 11.4248 104.997 13.0374V21.7077H100.518V4.30426H104.997V7.00588C105.573 6.0844 106.325 5.36187 107.252 4.8383C108.18 4.31474 109.241 4.05295 110.436 4.05295ZM76.6524 0V4.30374H80.6195V7.91637H76.6524V16.3354C76.6524 16.9218 76.7963 17.3459 77.0843 17.6076C77.3722 17.8694 77.8574 18.0003 78.5399 18.0003H80.6195V21.7072H77.8041C74.0289 21.7072 72.1413 19.9061 72.1413 16.3039V7.91637H70.0298V4.30374H72.1413V0H76.6524ZM18.4494 12.1664V21.6954H13.9437V19.1561C13.7304 19.4702 13.4904 19.7582 13.1972 20.02L8.87809 17.5854L18.4494 12.1664ZM3.75919 11.1452V20.7004C2.63943 19.9674 1.73296 18.9726 1.06644 17.6637C0.399914 16.3809 0.0533219 14.9149 0 13.2657L3.75919 11.1452ZM30.0701 7.88443C29.2596 7.88443 28.4971 8.08862 27.7826 8.49701C27.0681 8.90539 26.4922 9.49702 26.0549 10.2719C25.6177 11.0468 25.3991 11.9578 25.3991 13.0049C25.3991 14.0521 25.6177 14.9657 26.0549 15.738C26.4922 16.5129 27.0681 17.1045 27.7826 17.5129C28.4971 17.9213 29.2596 18.1254 30.0701 18.1254C30.9019 18.1254 31.6751 17.916 32.3896 17.4972C33.1041 17.0783 33.68 16.4814 34.1172 15.7066C34.5545 14.9317 34.7731 14.0102 34.7731 12.9421C34.7731 11.895 34.5545 10.9892 34.1172 10.2248C33.68 9.46037 33.1041 8.87921 32.3896 8.4813C31.6751 8.08339 30.9019 7.88443 30.0701 7.88443ZM18.4488 4.3129V11.4073L12.6634 14.6796V5.51711C13.17 5.88361 13.5965 6.30247 13.9431 6.77368V4.3129H18.4488ZM3.09267 5.7268L7.54505 8.23993L0.0266609 12.507C0.0533219 10.9101 0.399914 9.4965 1.06644 8.26611C1.59966 7.24515 2.29284 6.40744 3.09267 5.7268ZM48.946 7.63312C47.8369 7.63312 46.9038 7.96297 46.1466 8.62266C45.3895 9.28236 44.9256 10.1986 44.7549 11.3714H53.1691C53.1478 10.2405 52.7319 9.33472 51.9214 8.65408C51.1109 7.97344 50.1191 7.63312 48.946 7.63312ZM119.138 7.63312C118.029 7.63312 117.096 7.96297 116.339 8.62266C115.581 9.28236 115.117 10.1986 114.947 11.3714H123.361C123.34 10.2405 122.924 9.33472 122.113 8.65408C121.303 7.97344 120.311 7.63312 119.138 7.63312ZM8.10439 4.0252C9.41078 4.0252 10.5572 4.28699 11.5703 4.81056C11.7036 4.88909 11.8636 4.96763 11.9969 5.07234V10.0201L3.70534 5.30795C3.78532 5.22941 3.89196 5.17705 3.97195 5.1247C5.19835 4.3917 6.58472 4.0252 8.10439 4.0252Z" fill="white"/>
</svg>
